#!OML:ASF F:\VICON\USERDATA\INSTALL\rory3\rory3.ASF
:FULLY-SPECIFIED
:DEGREES
59
root 0.6380043035923031 17.79205879612205 16.944870558981012 -3.761479612013653 -2.8447407542866108 0.7965042807636178
lfemur -3.6605312765795395 -3.477485526234305 -26.85789033535177
ltibia 29.077360127854995
lfoot -13.183972599216656 0.19997225739772873
ltoes 4.850958767297671
rfemur -28.783143707506017 -0.6914252442134803 21.207574524913056
rtibia 69.73196631906855
rfoot -6.241410902709042 -5.71237800637593
rtoes 9.006877434152084
lowerback nan 0.011039511466420182 -0.2741448516023388
upperback 0.844437037490521 0.009290787238761977 0.8322755110675291
thorax -5.854849018925044 0.05792188726236813 1.6768242039656531
lowerneck -15.484170850297613 -2.799413908461151 -2.0674809708581
upperneck 20.989667935518348 -3.2250270089612014 0.48448938970312794
head 8.755437764067672 -1.6024564926879554 -0.09338231750990095
lclavicle -2.052265254070443e-15 4.308012914206333e-15
lhumerus -31.991927645365745 -0.015814354392196694 83.22501666223484
lradius 21.00649076427711
lwrist 3.786009709092844
lhand -27.572048047155672 23.579733087673368
lfingers nan
lthumb -0.7718415391703966 53.872905941864744
rclavicle -6.506481186435304e-16 6.668743414909244e-15
rhumerus -30.522915293420965 -23.604668562536446 -74.65863846989093
rradius 26.663449502144964
rwrist 10.556865533012356
rhand -18.842373784140804 nan
rfingers nan
rthumb 7.327099485056605 -6.62851552817541
60
root 0.6350971546486083 17.783890596696253 18.5653733877635 -3.3014810776730803 -1.8576793227092687 1.2966230428109848
lfemur -1.3769158105393302 -2.9023351777565205 -27.953185664881516
ltibia 26.770631347905763
lfoot -13.430023193198124 -0.6432616872985006
ltoes 5.829447460389195
rfemur -30.38828020252803 -0.08485455375663431 20.851172095898928
rtibia 61.89136695050058
rfoot -8.546521131856284 -7.0135491010714315
rtoes 3.4312446065093054
lowerback nan -0.38444385016782 -1.132890015372289
upperback 0.9561683718307736 -0.5743354599447581 0.7752044972423819
thorax -5.808697081520549 -0.20891402056962488 2.2644005446723714
lowerneck -15.713338755843669 -2.7879060296569524 -2.2581496818042512
upperneck 20.773758508344184 -3.1474434723058202 0.6483875536260761
head 8.877606110464697 -1.5138874066877295 0.06803894495040977
lclavicle -4.480523338726844e-15 1.8425363734313793e-15
lhumerus -30.102300333833945 -1.8815682779645733 83.37324259688077
lradius 21.34669865424293
lwrist 3.759604363893591
lhand -27.25974394065374 25.002058329636856
lfingers nan
lthumb -0.015044311448619396 56.23515073765987
rclavicle -5.431878344036623e-15 1.9530754963066777e-15
rhumerus -32.084023123233436 -24.1879089092508 -73.62809851867114
rradius 27.642419174826564
rwrist 9.353640585097668
rhand -18.768937242354223 nan
rfingers nan
rthumb 7.58061665040507 -6.474926890517806
61
root 0.594393117558841 17.754803830324086 18.467888121797237 -2.697656931079944 -1.2223717670971808 1.426420196210647
lfemur 2.258580086077833 -1.9631695733389465 -27.9236680326341
ltibia 22.995593840850667
lfoot -12.358052465348589 -1.8482694041156589
ltoes 7.399670548855793
rfemur -30.27388451436112 1.6550169209205694 19.814051902373592
rtibia 51.31120997072212
rfoot -7.955637492971999 -8.845884486011522
rtoes 1.0975979871788257
lowerback nan -0.6961651290131807 -1.502325652137074
upperback 1.0388289188068505 -0.9765944449043527 1.010048281177694
thorax -5.657095043125276 -0.3882893802757746 2.549606460810717
lowerneck -15.891095778954432 -2.8696454797494138 -2.382416330189069
upperneck 20.580921217395233 -3.2472707548241617 0.6772288174596235
head 8.79613796693746 -1.5931430492979686 0.022943266929739463
lclavicle -1.9386123961560742e-15 4.532346161564989e-15
lhumerus -27.87825452826096 -2.4769225261675962 83.17559637007218
lradius 22.476542687042596
lwrist 4.1285039559169014
lhand -27.54692445954039 25.863322620116648
lfingers nan
lthumb -0.6022185611252817 56.168040392916396
rclavicle -7.249662481648836e-15 -7.791127049740017e-16
rhumerus -33.16634510689256 -25.325005096356367 -72.70952394160493
rradius 27.98749068461919
rwrist 7.4829104801157005
rhand -18.96787751448988 nan
rfingers nan
rthumb 7.538156404070949 -6.529825825036614
62
root 0.5745686337635902 17.737240460786012 20.426526752884705 -1.9810838246198657 -0.16210903526491194 2.079957358400694
lfemur 5.330995910067076 -1.5248008104271522 -28.00202182751753
ltibia 19.73921417495656
lfoot -9.499120080370236 -3.508190258095642
ltoes 7.1919732952176165
rfemur -29.719604274852347 4.331908133562504 18.239104826627226
rtibia 39.26144316499813
rfoot -6.794244991574999 -10.653625790419113
rtoes -1.4759516135849298
lowerback nan -1.0238585161601643 -1.7528629565253446
upperback 1.0786137322179996 -1.3918372323341395 1.1174865954215978
thorax -5.465576906239691 -0.6508007525367874 3.098877015149691
lowerneck -16.072957652877363 -2.8919276984533493 -2.432235335680781
upperneck 20.49667203255079 -3.206433973363803 0.7995930685747301
head 8.742106548019452 -1.5673490073536145 0.11031616324287989
lclavicle -5.058246288178616e-15 -3.475757462073238e-17
lhumerus -26.172122114255934 -3.7142581707392357 82.86163149329923
lradius 24.27238132890035
lwrist 5.315074704110526
lhand -28.647282551489813 25.034991755479414
lfingers nan
lthumb -1.9037667808313732 55.16650934728838
rclavicle -1.0222216190595007e-15 4.362267138689289e-15
rhumerus -34.30921432311794 -26.95539784554156 -71.51057926348673
rradius 27.477742170309646
rwrist 7.47107331152738
rhand -18.871963083861726 nan
rfingers nan
rthumb 7.649090708895441 -7.000496979839076
63
root 0.5085845758789016 17.69511867249113 20.225616980261208 -1.54826904190372 0.40627825885568725 2.112708163047967
lfemur 8.542340341113132 -0.9592649878510738 -28.277532643456034
ltibia 15.562264788971987
lfoot -6.844662120947206 -6.742797002676441
ltoes 4.8179765403056205
rfemur -29.451529422097337 6.47688414093689 16.48683077994174
rtibia 27.31950459138036
rfoot -6.896141741436333 -12.854597695144296
rtoes -5.827391826439782
lowerback nan -1.295976492110014 -2.258719675730765
upperback 0.9443699976712512 -1.895976793340999 1.0401749472504092
thorax -5.78540681720534 -0.8826385644408754 3.4143698355088157
lowerneck -15.956784725212062 -2.8777541707785237 -2.4345100108466804
upperneck 20.37977239807468 -3.0530442925074426 0.7935837752707823
head 8.883145234917487 -1.4682820681873423 0.1321984909188229
lclavicle -3.5684420042810634e-15 2.228479988721865e-15
lhumerus -24.538941684238882 -4.2372081816041 82.47925872616761
lradius 26.338706265632112
lwrist 5.83393489419355
lhand -29.621029959360275 23.24201059189756
lfingers nan
lthumb -3.1404557611500934 52.98094719717834
rclavicle -6.823926988840776e-15 1.293640141196189e-15
rhumerus -35.649302041209054 -28.325389743701272 -70.29550208477315
rradius 26.426392234233948
rwrist 6.8728657507075175
rhand -18.77037685565866 nan
rfingers nan
rthumb 7.523817049269502 -8.12983017187845
64
root 0.4718298445881429 17.654492711444487 22.61789439549466 -1.1260286378193658 1.238947047646928 2.5445925540506367
lfemur 11.218409152017998 -1.5950297322256017 -27.936098332521873
ltibia 14.887174597565842
lfoot -5.224363272885897 -7.382449604041024
ltoes -0.08986969945957135
rfemur -29.163454260039675 7.158956091544134 15.721298263547837
rtibia 18.32704082000611
rfoot -10.320397524817407 -15.893733627434417
rtoes -8.531044341386295
lowerback nan -1.6189481507685695 -2.688796743305855
upperback 0.7770870447843917 -2.281480987747517 1.1482439716738042
thorax -6.0202820318363575 -1.091715359439121 3.6751962988299396
lowerneck -15.860880919202168 -2.8989601100367155 -2.4645843392742712
upperneck 20.18947121477867 -3.251111235439468 0.9353267969289687
head 9.007288516881657 -1.4720756134465587 0.09131367486254681
lclavicle -2.749246404299194e-15 3.171029286554089e-15
lhumerus -23.277141855448132 -4.768914298405841 82.04122957784264
lradius 28.76371610242648
lwrist 5.883699307803768
lhand -27.70332552631204 24.617440553931154
lfingers nan
lthumb -1.232426776540457 54.610093592142675
rclavicle -4.482441923944077e-15 4.262781894045068e-16
rhumerus -37.131665868240994 -30.759678651350455 -68.32296828234485
rradius 24.903634067741073
rwrist 8.015122694141219
rhand -18.814108797315782 nan
rfingers nan
rthumb 7.521454561140209 -7.78697596384972
65
root 0.39573465063814245 17.603220290055145 22.479151823286607 -1.1621185492939592 1.197053901445669 2.173306704817461
lfemur 12.916771504078199 -2.6469093956309626 -27.220387301829348
ltibia 16.92213053759879
lfoot -6.176130523319252 -5.784395862242896
ltoes -7.272328355440216
rfemur -29.33912754127158 6.071258247435681 17.041535476937682
rtibia 17.4560921433177
rfoot -11.331204497103512 -14.609998963411957
rtoes -4.988389319536492
lowerback nan -1.7019330675679274 -2.8368253511789643
upperback 0.7165518149179843 -2.400629911322138 1.3334692679182856
thorax -4.966035394743976 -1.1177113165184747 4.299582051922212
lowerneck -16.09045834517095 -2.9109607160280646 -2.3554956428369502
upperneck 20.217801885594234 -3.2876273129380773 0.9212751583444455
head 8.674240296285872 -1.5389392815733647 -0.0860651171827825
lclavicle -1.0756293195370568e-15 3.6582204804760054e-15
lhumerus -22.034473133690888 -4.8169935059772175 81.79635204022162
lradius 30.683049211200174
lwrist 6.143871814630179
lhand -26.349484509970356 26.326412378117464
lfingers nan
lthumb 0.15489147699982908 56.2089595002485
rclavicle -1.921542496160881e-15 2.5754441757938212e-15
rhumerus -39.02187928268276 -33.07994703566144 -66.03063082407871
rradius 23.48293835110649
rwrist 8.129514502436281
rhand -18.93048792345454 nan
rfingers nan
rthumb 7.195015156505717 -6.57933941394901
66
root 0.32481777995925926 17.589689177893398 23.100753847518888 -1.3316060199730335 1.2659677722703873 1.6960418100823853
lfemur 14.577770914312023 -3.987872783215186 -26.801267774463888
ltibia 19.782028404273014
lfoot -6.225288576262847 -4.195155870113029
ltoes -12.596109344831998
rfemur -29.038875396755397 4.186187823083082 19.236093479451213
rtibia 24.118075167560367
rfoot -8.247185974847296 -11.4156419890192
rtoes -4.077248420029098
lowerback nan -1.6975419399938592 -3.132579339560587
upperback 0.6558708778497206 -2.409528040108767 1.5556147594451448
thorax -4.763115461449995 -1.126168647195799 4.472989197148719
lowerneck -15.902651419440417 -2.7871825123931164 -2.341715476730921
upperneck 20.20452255954912 -3.172784523971545 1.0843229636850216
head 8.65523527402412 -1.4505403425326464 0.14887499937100448
lclavicle -3.630358026192566e-15 2.9034182237682673e-16
lhumerus -21.36582295505905 -5.303291510218317 81.60488169383356
lradius 32.20450139605485
lwrist 6.619675317141127
lhand -27.31393659969975 25.115482192243103
lfingers nan
lthumb -1.0700239582727478 54.44919890488417
rclavicle -3.945556733084811e-15 -5.244975224555929e-16
rhumerus -41.24280251541677 -35.780571605545276 -63.573761056474865
rradius 21.45104382744459
rwrist 10.673334553553769
rhand -18.78501576866436 nan
rfingers nan
rthumb 7.680672326242374 -6.204620817736132
